<svg xmlns="http://www.w3.org/2000/svg" viewBox="0 0 348.85 223.03"><defs><style>.cls-1{font-size:160.72px;fill:#76ab59;}.cls-1,.cls-2,.cls-4{font-family:Wasabi_YandiDesigns, Wasabi;}.cls-2{font-size:93.97px;}.cls-2,.cls-3{fill:#fff;}.cls-4{font-size:32.16px;fill:#bcbfbb;}</style></defs><title>logo</title><g id="Capa_2" data-name="Capa 2"><g id="Capa_1-2" data-name="Capa 1"><text class="cls-1" transform="translate(0 147.85)">Maki</text><text class="cls-2" transform="translate(215.32 120.9)">home</text><path class="cls-3" d="M317.59,131.56c.92,1.44.54,2.36-1.15,2.73l-33.81,7.49a2.26,2.26,0,0,0-.92.37l7.06.53,28.49,2.1c1.23.09,1.89.65,1.84,1.55s-.75,1.46-1.88,1.38l-10.78-.8-34.67-2.57a4.56,4.56,0,0,0-1.22.12L256,147.67a5.78,5.78,0,0,1-.57.12,1.46,1.46,0,1,1-.63-2.83c1.66-.39,3.33-.75,5-1.12a2,2,0,0,0,.79-.32l-5.33-.41-.57-.05c-1-.1-1.59-.71-1.52-1.58a1.48,1.48,0,0,1,1.76-1.32l4.7.35,10.78.8a4.43,4.43,0,0,0,1.15-.08q22.49-4.95,45-9.94s.08-.06.12-.09Z"/><text class="cls-4" transform="translate(10.51 185.98)">sushi delivery</text></g></g></svg>