<svg xmlns="http://www.w3.org/2000/svg" viewBox="0 0 182.33 116.56"><defs><style>.cls-1{font-size:84px;fill:#37d150;}.cls-1,.cls-2,.cls-4{font-family:Wasabi_YandiDesigns, Wasabi;}.cls-2{font-size:49.11px;}.cls-2,.cls-3,.cls-4{fill:#363a37;}.cls-4{font-size:16.81px;}</style></defs><title>Recurso 11</title><g id="Capa_2" data-name="Capa 2"><g id="Capa_1-2" data-name="Capa 1"><text class="cls-1" transform="translate(0 77.27)">Maki</text><text class="cls-2" transform="translate(112.54 63.19)">home</text><path class="cls-3" d="M166,68.76c.48.76.28,1.24-.6,1.43l-17.67,3.92a1.13,1.13,0,0,0-.48.18l3.69.29,14.89,1.09c.64,0,1,.34,1,.81s-.39.77-1,.73l-5.64-.42L142,75.44a2.33,2.33,0,0,0-.64.07l-7.59,1.67-.3.07a.77.77,0,1,1-.33-1.49l2.62-.58a1,1,0,0,0,.41-.17l-2.78-.21-.3,0c-.53-.06-.83-.38-.8-.83a.76.76,0,0,1,.92-.69c.82,0,1.64.12,2.46.18l5.64.42a2.35,2.35,0,0,0,.59,0l23.5-5.2s.05,0,.07-.05Z"/><text class="cls-4" transform="translate(5.49 97.2)">sushi delivery</text></g></g></svg>