<svg xmlns="http://www.w3.org/2000/svg" viewBox="0 0 9.38 33.57"><defs><style>.cls-1{fill:#76ab59;}.cls-2{fill:#fefcfa;}.cls-3{fill:#fff;}</style></defs><title>social</title><g id="Capa_2" data-name="Capa 2"><g id="Capa_1-2" data-name="Capa 1"><path class="cls-1" d="M9.38,4.84c0,3.22-1.47,4.54-4.69,4.54S0,8.06,0,4.84,1.47,0,4.69,0,9.38,1.62,9.38,4.84"/><path class="cls-2" d="M4.69,1.69c-.83,0-.93,0-1.25,0a2.56,2.56,0,0,0-.74.14,1.4,1.4,0,0,0-.53.35,1.39,1.39,0,0,0-.35.54,2.18,2.18,0,0,0-.15.74c0,.32,0,.42,0,1.25s0,.92,0,1.25a2.17,2.17,0,0,0,.15.73,1.39,1.39,0,0,0,.35.54,1.4,1.4,0,0,0,.53.35,2.56,2.56,0,0,0,.74.14c.32,0,.42,0,1.25,0s.92,0,1.25,0a2.48,2.48,0,0,0,.73-.14,1.54,1.54,0,0,0,.89-.89A2.19,2.19,0,0,0,7.7,6c0-.33,0-.43,0-1.25s0-.93,0-1.25a2.21,2.21,0,0,0-.14-.74,1.54,1.54,0,0,0-.89-.89,2.48,2.48,0,0,0-.73-.14c-.33,0-.43,0-1.25,0m0,.55c.81,0,.9,0,1.22,0a1.7,1.7,0,0,1,.57.1.89.89,0,0,1,.34.23.82.82,0,0,1,.23.35,1.57,1.57,0,0,1,.1.56c0,.32,0,.42,0,1.23s0,.9,0,1.22a1.57,1.57,0,0,1-.1.56.82.82,0,0,1-.23.35.89.89,0,0,1-.34.23,1.7,1.7,0,0,1-.57.1c-.32,0-.41,0-1.22,0s-.91,0-1.23,0a1.69,1.69,0,0,1-.56-.1,1,1,0,0,1-.35-.23,1.07,1.07,0,0,1-.23-.35A1.57,1.57,0,0,1,2.22,6c0-.32,0-.42,0-1.22s0-.91,0-1.23a1.57,1.57,0,0,1,.1-.56,1.07,1.07,0,0,1,.23-.35,1,1,0,0,1,.35-.23,1.69,1.69,0,0,1,.56-.1c.32,0,.42,0,1.23,0"/><path class="cls-2" d="M4.69,5.74a1,1,0,1,1,1-1,1,1,0,0,1-1,1m0-2.57A1.56,1.56,0,1,0,6.24,4.73,1.56,1.56,0,0,0,4.69,3.17"/><path class="cls-2" d="M5.05,3.11a.36.36,0,0,1-.36.36.37.37,0,0,1-.37-.36.38.38,0,0,1,.37-.37.37.37,0,0,1,.36.37"/><path class="cls-1" d="M9.38,17c0,3.22-1.47,4.54-4.69,4.54S0,20.22,0,17s1.47-4.84,4.69-4.84S9.38,13.78,9.38,17"/><path class="cls-2" d="M5.14,19.81V17.14H6l.14-1h-1v-.66c0-.3.08-.5.51-.5H6.2V14a5.23,5.23,0,0,0-.8,0,1.25,1.25,0,0,0-1.33,1.38v.76h-.9v1h.9v2.67Z"/><path class="cls-1" d="M9.38,29c0,3.22-1.47,4.53-4.69,4.53S0,32.26,0,29,1.47,24.2,4.69,24.2,9.38,25.82,9.38,29"/><path class="cls-3" d="M7.27,28.29a1.63,1.63,0,0,1-1.5-.7v2.46a1.83,1.83,0,1,1-1.86-1.82H4v.88l-.23,0a.93.93,0,0,0-.81,1,1,1,0,0,0,1.9-.09c0-.87,0-1.74,0-2.61V25.87h.85l.06.22a1.58,1.58,0,0,0,1.31,1.18c.1,0,.14.05.14.15C7.26,27.7,7.27,28,7.27,28.29Z"/></g></g></svg>