<svg xmlns="http://www.w3.org/2000/svg" xmlns:xlink="http://www.w3.org/1999/xlink" viewBox="0 0 360.9 210.55"><defs><style>.cls-1{fill:#f89a6e;}.cls-2{fill:#f2a62f;}.cls-3{fill:#eaedfb;}.cls-4{fill:#404dc4;}.cls-5{fill:#5b62db;}.cls-6{fill:#fff;}.cls-7{opacity:0.57;}.cls-11,.cls-26,.cls-8,.cls-9{fill:none;}.cls-8{stroke:#a2c9f8;stroke-width:3.01px;}.cls-11,.cls-26,.cls-8{stroke-linecap:round;stroke-linejoin:round;}.cls-11,.cls-9{stroke:#fff;}.cls-9{stroke-miterlimit:10;stroke-width:2.81px;}.cls-10{fill:#f04365;}.cls-11{stroke-width:4.21px;}.cls-12{fill:#1b1754;}.cls-13{fill:#243051;}.cls-14{fill:#2a2b7b;}.cls-15{fill:#d72e57;}.cls-16{fill:#e88057;}.cls-17{clip-path:url(#clip-path);}.cls-18{fill:#fdd63b;}.cls-19{clip-path:url(#clip-path-2);}.cls-20{fill:#f97d7d;}.cls-21{clip-path:url(#clip-path-3);}.cls-22{fill:#fafafa;}.cls-23{fill:#eb9924;}.cls-24{fill:#8bbdf8;}.cls-25{clip-path:url(#clip-path-4);}.cls-26{stroke:#102236;stroke-width:0.65px;}</style><clipPath id="clip-path"><path class="cls-1" d="M297.7,98.49a8.28,8.28,0,1,0,11.7-.44A8.28,8.28,0,0,0,297.7,98.49Z"/></clipPath><clipPath id="clip-path-2"><path class="cls-1" d="M81.35,13.25a8.28,8.28,0,1,0,8.43-8.14A8.28,8.28,0,0,0,81.35,13.25Z"/></clipPath><clipPath id="clip-path-3"><path class="cls-2" d="M246.61,207.86l9.89-25.54a1.42,1.42,0,0,1,2.66,0L269,207.86Z"/></clipPath><clipPath id="clip-path-4"><rect class="cls-2" x="44.16" y="160.5" width="64.89" height="19.7" rx="5.14"/></clipPath></defs><title>webMantenim</title><g id="Capa_2" data-name="Capa 2"><g id="OBJECTS"><path class="cls-3" d="M306.83,209.38s54.26-24.13,53-72.82S307.14,65.24,272.23,95.3s-57.51,4.85-75.59-20.55S138.21,17.3,85.27,32.11c-55.45,15.51-72.52,71.67-67,109.15,3.94,26.92,18.37,49.74,38,67.27.64.57,1.3,1.14,2,1.69Z"/><rect class="cls-4" x="159.3" y="193.29" width="45.36" height="11.1"/><path class="cls-5" d="M213.22,210.18H150.74a2.89,2.89,0,0,1-2.9-2.89h0a2.9,2.9,0,0,1,2.9-2.9h62.48a2.9,2.9,0,0,1,2.9,2.9h0A2.89,2.89,0,0,1,213.22,210.18Z"/><path class="cls-5" d="M284,65.58A6.54,6.54,0,0,0,277.48,59h-191a6.54,6.54,0,0,0-6.54,6.54V176.13H284Z"/><rect class="cls-3" x="88.69" y="68.4" width="186.57" height="99.2"/><path class="cls-6" d="M86.48,194.43h191a6.54,6.54,0,0,0,6.54-6.54V176.13H79.94v11.76A6.54,6.54,0,0,0,86.48,194.43Z"/><path class="cls-4" d="M185.86,185.28A3.88,3.88,0,1,1,182,181.4,3.88,3.88,0,0,1,185.86,185.28Z"/><g class="cls-7"><polygon class="cls-6" points="140.5 68.4 97.91 167.61 112.98 167.61 156.04 68.4 140.5 68.4"/><polygon class="cls-6" points="249.17 68.4 206.58 167.61 221.65 167.61 264.71 68.4 249.17 68.4"/><polygon class="cls-6" points="175.27 68.4 132.67 167.61 177.29 167.61 220.35 68.4 175.27 68.4"/></g><rect class="cls-6" x="101.98" y="89.11" width="79.18" height="56.09"/><rect class="cls-8" x="101.98" y="89.11" width="79.18" height="56.09"/><line class="cls-9" x1="190.24" y1="93.34" x2="262.62" y2="93.34"/><line class="cls-9" x1="190.24" y1="110.26" x2="234.74" y2="110.26"/><line class="cls-9" x1="190.24" y1="101.71" x2="203" y2="101.71"/><line class="cls-9" x1="190.24" y1="121.26" x2="262.62" y2="121.26"/><line class="cls-9" x1="190.24" y1="138.19" x2="262.62" y2="138.19"/><line class="cls-9" x1="190.24" y1="129.64" x2="232.94" y2="129.64"/><circle class="cls-10" cx="140" cy="116.82" r="17.4" transform="translate(0.07 233.73) rotate(-79.72)"/><line class="cls-11" x1="131.19" y1="116.82" x2="148.28" y2="116.82"/><polygon class="cls-12" points="296.22 150.24 299.98 205.52 305.92 205.51 307.15 150.21 296.22 150.24"/><path class="cls-13" d="M295.06,210.05h10.82v-5h-5.8a5,5,0,0,0-5,5Z"/><path class="cls-13" d="M307.87,210.05h11.29l-.46-5h-5.81a5,5,0,0,0-5,5Z"/><polygon class="cls-14" points="314.92 150.27 318.7 205.03 312.89 205.22 303.19 150.27 314.92 150.27"/><path class="cls-10" d="M304.78,121.8l15.42,13.76a3.48,3.48,0,0,0,4.52.1h0a3.5,3.5,0,0,0,.45-5s-7.45-10-11.62-13.31Z"/><path class="cls-1" d="M328.57,155.29a3.7,3.7,0,1,1-3.7-3.7A3.7,3.7,0,0,1,328.57,155.29Z"/><path class="cls-10" d="M320.1,134l2,18.41h5.29l-1.21-19a3.06,3.06,0,0,0-3.54-2.82h0A3.08,3.08,0,0,0,320.1,134Z"/><path class="cls-10" d="M303.2,114.81s-7.56.24-8,7.8.88,27.66.88,27.66h18.8l.47-24.56c1.18-6.57-2.15-10.74-8.89-11A26.88,26.88,0,0,0,303.2,114.81Z"/><polygon class="cls-15" points="315.29 131.18 312.05 128.29 315.17 137.16 315.29 131.18"/><path class="cls-1" d="M277.6,108.3a3.7,3.7,0,1,1-3.7-3.71A3.7,3.7,0,0,1,277.6,108.3Z"/><path class="cls-10" d="M285.57,128.41l-8-18.11-5.08,1.6,7.19,18.33a3.07,3.07,0,0,0,4,2h0A3.06,3.06,0,0,0,285.57,128.41Z"/><path class="cls-10" d="M300.26,115.47A111.86,111.86,0,0,0,281.33,126a3.49,3.49,0,0,0-1.61,4.23h0a3.49,3.49,0,0,0,4.53,2.08l15.19-7.39Z"/><polygon class="cls-15" points="295.16 126.96 295.24 122.61 291.79 128.6 295.16 126.96"/><path class="cls-1" d="M301,110.51l.24,5.08a2.81,2.81,0,0,0,1.77,2.49h0a2.82,2.82,0,0,0,3.85-2.88l-.31-5Z"/><path class="cls-16" d="M301.18,114.14s4.71.65,5.38-4-4.48-2.71-4.48-2.71l-1,3.8Z"/><path class="cls-1" d="M297.7,98.49a8.28,8.28,0,1,0,11.7-.44A8.28,8.28,0,0,0,297.7,98.49Z"/><g class="cls-17"><path class="cls-13" d="M306.19,106.61s-3.26,5.92,1.33,7.55S313.44,103,313.44,103l-5-9.75-12.13-.84-.68,4.2s1.16,4.09,11.33,7.94Z"/><polygon class="cls-13" points="303.72 101.96 305.15 106.78 308.81 104.65 303.72 101.96"/></g><path class="cls-1" d="M305.39,105a2.21,2.21,0,1,0,3.13-.12A2.21,2.21,0,0,0,305.39,105Z"/><path class="cls-18" d="M295.3,101.45s-.4-5.92,4.58-9a8.51,8.51,0,0,1,11.93,3.11c1.07,2,1.67,4,1,7.84Z"/><path class="cls-2" d="M312.53,104.25h-.1l-19.87-2.14a.86.86,0,1,1,.19-1.71l19.87,2.14a.84.84,0,0,1,.76.95A.85.85,0,0,1,312.53,104.25Z"/><circle class="cls-5" cx="292.18" cy="27.76" r="15.48" transform="translate(198.25 305.82) rotate(-76.76)"/><path class="cls-6" d="M294.45,34.47a2.27,2.27,0,0,1-4.53,0A2.27,2.27,0,0,1,294.45,34.47Zm-.27-15.25-.1,11.17h-3.82c0-4.22-.07-6.92-.07-11.17Z"/><path class="cls-3" d="M193.3.19l1.27,3.3A7.68,7.68,0,0,0,199,7.92l3.3,1.27L199,10.47a7.69,7.69,0,0,0-4.43,4.42L193.3,18.2,192,14.89a7.7,7.7,0,0,0-4.42-4.42l-3.31-1.28,3.31-1.27A7.69,7.69,0,0,0,192,3.49Z"/><path class="cls-3" d="M228.81,28.7l.85,2.22a5.17,5.17,0,0,0,3,3l2.22.85-2.22.85a5.15,5.15,0,0,0-3,3l-.85,2.22L228,38.56a5.16,5.16,0,0,0-3-3l-2.22-.85,2.22-.85a5.18,5.18,0,0,0,3-3Z"/><path class="cls-3" d="M13.65,47.65l.69,1.8a4.15,4.15,0,0,0,2.41,2.41l1.8.7-1.8.69a4.15,4.15,0,0,0-2.41,2.41l-.69,1.8-.7-1.8a4.15,4.15,0,0,0-2.41-2.41l-1.8-.69,1.8-.7A4.15,4.15,0,0,0,13,49.45Z"/><path class="cls-3" d="M341.94,56.78l.69,1.8A4.21,4.21,0,0,0,345,61l1.8.69-1.8.69a4.24,4.24,0,0,0-2.41,2.41l-.69,1.8-.69-1.8a4.24,4.24,0,0,0-2.41-2.41l-1.8-.69,1.8-.69a4.21,4.21,0,0,0,2.41-2.41Z"/><path class="cls-1" d="M91.84,20l3.57,3.62a2.82,2.82,0,0,0,3,.67h0a2.82,2.82,0,0,0,.94-4.71L95.73,16Z"/><path class="cls-16" d="M94.39,22.58S96.62,18,95.73,16c-1.92-4.27-5.14,1-5.14,1l1.76,3.53Z"/><path class="cls-1" d="M81.35,13.25a8.28,8.28,0,1,0,8.43-8.14A8.28,8.28,0,0,0,81.35,13.25Z"/><g class="cls-19"><path class="cls-13" d="M93.1,13.63s1.51,6.59,6,4.74-3-12.27-3-12.27L85.87,2.15l-9.6,7.47,1.07,6.47s3.42-2.44,13.57-6.36Z"/><polygon class="cls-13" points="88.15 11.82 92.44 14.46 93.74 10.43 88.15 11.82"/></g><path class="cls-13" d="M93.57,15.19s7.15,19.46,16,10.58c7.89-7.87-4-12.66-7.27-13.51-2.47-.64-3.42-1.48-6.53-4.38l-6.18.89Z"/><path class="cls-1" d="M91.4,12.94a2.22,2.22,0,1,0,2.25-2.18A2.21,2.21,0,0,0,91.4,12.94Z"/><path class="cls-18" d="M80.54,14.53s-3.27-5-.44-10.1A8.5,8.5,0,0,1,92,1.28c1.92,1.22,3.41,2.63,4.7,6.35Z"/><path class="cls-2" d="M96.92,8.5l-.09.05-18.36,7.9A.86.86,0,0,1,77.34,16a.87.87,0,0,1,.46-1.13L96.15,7a.86.86,0,0,1,.77,1.54Z"/><path class="cls-12" d="M80.19,60.8,61.9,79.55l-4.68-2.06L73.05,55a4.23,4.23,0,0,1,7-.33h0A6.49,6.49,0,0,1,80.19,60.8Z"/><path class="cls-13" d="M50.17,77.38l9.25,6.48,2.5-4.37-4.76-3.34a5,5,0,0,0-7,1.23Z"/><path class="cls-14" d="M92.83,49.62l-18.5,3.29,3.81,7.23H103s7.46-.18,4-8.36Z"/><path class="cls-14" d="M81.16,55.27,90,84.42l-5,2.85L71.07,59.11a4.22,4.22,0,0,1,3.29-6.19h0C76.12,52.74,80.39,53.68,81.16,55.27Z"/><path class="cls-13" d="M82.73,93.91,92,89.05l-2-4.63-5.14,2.71a5,5,0,0,0-2.1,6.78Z"/><path class="cls-10" d="M91.77,27.67s.75-3.27,1.7-4.27c.67-.72,3.1-3,4.44-3.5A1.35,1.35,0,0,1,99.1,20a19.71,19.71,0,0,1,8.14,10.62c2.07,6.23,2.52,24,2.52,24-5.89,3.83-16.93-5-16.93-5C93.12,38.57,90.39,38,91.77,27.67Z"/><path class="cls-15" d="M90.59,50l8.69.4a4,4,0,0,0,4.4-3.9l.38-15Z"/><path class="cls-20" d="M82.76,47.89l-5.14-1.83a1.25,1.25,0,0,0-1.22.21l-2.29,1.86a1.15,1.15,0,0,0,.28,1.95h0a1.17,1.17,0,0,0,1.21-.19l1.09-1s3.77,2.16,5.55,1.57Z"/><path class="cls-10" d="M95.86,25.06,95,41.89,81.27,45.45l.57,5.12,16.73-1.75a4.59,4.59,0,0,0,3.09-1.5,3.26,3.26,0,0,0,.74-1.77l2.07-17.45Z"/><path class="cls-13" d="M72.84,54.6l19.42-3.4a1.09,1.09,0,0,0,.89-1.27h0A1.1,1.1,0,0,0,91.89,49l-19.43,3.4a1.09,1.09,0,0,0-.88,1.27h0A1.09,1.09,0,0,0,72.84,54.6Z"/><path class="cls-13" d="M73,53.56a.41.41,0,0,1-.3-.14L61,40.17a.41.41,0,0,1,0-.58.4.4,0,0,1,.58,0L73.29,52.87a.41.41,0,0,1,0,.58A.43.43,0,0,1,73,53.56Z"/><path class="cls-13" d="M95.71,19.71s5.53,13.32,13.11,6.68-8.26-10.47-8.26-10.47Z"/><path class="cls-2" d="M246.61,207.86l9.89-25.54a1.42,1.42,0,0,1,2.66,0L269,207.86Z"/><g class="cls-21"><rect class="cls-22" x="248.9" y="187.81" width="17.55" height="4.91"/><rect class="cls-22" x="247.95" y="197.1" width="19.84" height="4.91"/></g><path class="cls-23" d="M270.59,210H245.18a1.78,1.78,0,0,1-1.77-1.78h0a1.78,1.78,0,0,1,1.77-1.78h25.41a1.78,1.78,0,0,1,1.78,1.78h0A1.78,1.78,0,0,1,270.59,210Z"/><rect class="cls-24" x="52.24" y="178.43" width="7.73" height="21.84"/><rect class="cls-24" x="92.98" y="178.43" width="7.73" height="21.84"/><rect class="cls-5" x="44.16" y="199.05" width="64.18" height="11.02" rx="3.37"/><rect class="cls-2" x="44.16" y="160.5" width="64.89" height="19.7" rx="5.14"/><g class="cls-25"><polygon class="cls-6" points="43.34 187.11 31.65 187.11 58.9 156.88 70.59 156.88 43.34 187.11"/><polygon class="cls-6" points="90.84 187.11 79.15 187.11 106.4 156.88 118.1 156.88 90.84 187.11"/><polygon class="cls-6" points="66.61 187.11 54.91 187.11 82.16 156.88 93.86 156.88 66.61 187.11"/></g><line class="cls-26" x1="0.33" y1="210.22" x2="360.57" y2="210.22"/></g></g></svg>